<?xml version="1.0" encoding="utf-8"?>
<!-- Generator: Adobe Illustrator 26.1.0, SVG Export Plug-In . SVG Version: 6.00 Build 0)  -->
<svg version="1.1" id="Layer_1" xmlns="http://www.w3.org/2000/svg" xmlns:xlink="http://www.w3.org/1999/xlink" x="0px" y="0px"
	 viewBox="0 0 1080 1080" style="enable-background:new 0 0 1080 1080;" xml:space="preserve">
<style type="text/css">
	.st0{fill:#314AFF;}
	.st1{fill:#FFFFFF;}
	.st2{fill:#BDC5FF;}
</style>
<g>
	<g>
		<path class="st0" d="M454.27,559.21v-50.06h16.09v49.92c0,3.59,2.91,6.5,6.5,6.5h28.36v13.11h-31.48
			C462.99,578.69,454.27,569.97,454.27,559.21z"/>
		<path class="st0" d="M539.3,579.49c-6.09,0-11.44-1.19-16.04-3.58c-4.6-2.38-8.16-5.65-10.68-9.78
			c-2.52-4.14-3.78-8.86-3.78-14.16c0-5.36,1.24-10.12,3.73-14.25c2.48-4.14,5.88-7.38,10.18-9.74c4.3-2.35,9.17-3.53,14.6-3.53
			c5.23,0,9.95,1.11,14.16,3.33c4.21,2.22,7.53,5.4,9.98,9.54c2.45,4.14,3.68,9.09,3.68,14.85c0,0.6-0.03,1.28-0.1,2.04
			c-0.07,0.76-0.13,1.47-0.2,2.14h-43.41v-9.04h35.26l-5.96,2.68c0-2.78-0.56-5.2-1.69-7.25c-1.13-2.05-2.68-3.66-4.67-4.82
			c-1.99-1.16-4.31-1.74-6.95-1.74c-2.65,0-4.98,0.58-7,1.74c-2.02,1.16-3.59,2.78-4.72,4.87c-1.13,2.09-1.69,4.55-1.69,7.4v2.38
			c0,2.92,0.65,5.48,1.94,7.7c1.29,2.22,3.11,3.91,5.46,5.07c2.35,1.16,5.12,1.74,8.29,1.74c2.85,0,5.35-0.43,7.5-1.29
			c2.15-0.86,4.12-2.15,5.91-3.87l8.24,8.94c-2.45,2.78-5.53,4.92-9.24,6.41C548.4,578.74,544.13,579.49,539.3,579.49z"/>
		<path class="st0" d="M607.94,524.45c4.24,0,8.03,0.84,11.37,2.53c3.34,1.69,5.98,4.27,7.9,7.75s2.88,7.93,2.88,13.36v30.6h-15.5
			v-28.21c0-4.3-0.94-7.48-2.83-9.54c-1.89-2.05-4.55-3.08-8-3.08c-2.45,0-4.65,0.51-6.61,1.54c-1.95,1.03-3.48,2.6-4.57,4.72
			c-1.09,2.12-1.64,4.84-1.64,8.15v26.42h-15.5v-53.44h9.07c3.16,0,5.73,2.57,5.73,5.73v9.07l-2.78-4.47
			c1.92-3.58,4.67-6.32,8.24-8.24C599.3,525.41,603.37,524.45,607.94,524.45z"/>
		<path class="st0" d="M671.02,579.49c-6.09,0-11.44-1.19-16.04-3.58c-4.6-2.38-8.16-5.65-10.68-9.78
			c-2.52-4.14-3.78-8.86-3.78-14.16c0-5.36,1.24-10.12,3.73-14.25c2.48-4.14,5.88-7.38,10.18-9.74c4.3-2.35,9.17-3.53,14.6-3.53
			c5.23,0,9.95,1.11,14.16,3.33c4.21,2.22,7.53,5.4,9.98,9.54c2.45,4.14,3.68,9.09,3.68,14.85c0,0.6-0.03,1.28-0.1,2.04
			c-0.07,0.76-0.13,1.47-0.2,2.14h-43.41v-9.04h35.26l-5.96,2.68c0-2.78-0.56-5.2-1.69-7.25c-1.13-2.05-2.68-3.66-4.67-4.82
			c-1.99-1.16-4.31-1.74-6.95-1.74c-2.65,0-4.98,0.58-7,1.74c-2.02,1.16-3.59,2.78-4.72,4.87c-1.13,2.09-1.69,4.55-1.69,7.4v2.38
			c0,2.92,0.65,5.48,1.94,7.7c1.29,2.22,3.11,3.91,5.46,5.07c2.35,1.16,5.12,1.74,8.29,1.74c2.85,0,5.35-0.43,7.5-1.29
			c2.15-0.86,4.12-2.15,5.91-3.87l8.24,8.94c-2.45,2.78-5.53,4.92-9.24,6.41C680.12,578.74,675.85,579.49,671.02,579.49z"/>
		<path class="st0" d="M698.93,578.69l23.94-31.39l-0.3,8.54l-22.95-30.6h17.38l14.5,19.97l-6.56,0.2l15-20.17h16.49l-23.05,30.3
			v-8.34l23.84,31.49h-17.58l-15.2-21.26l6.46,0.89l-15.1,20.36H698.93z"/>
		<path class="st0" d="M772.54,517.8c-2.85,0-5.17-0.83-6.95-2.48c-1.79-1.65-2.68-3.71-2.68-6.16c0-2.45,0.89-4.5,2.68-6.16
			c1.79-1.65,4.11-2.48,6.95-2.48c2.85,0,5.17,0.78,6.95,2.33c1.79,1.56,2.68,3.56,2.68,6.01c0,2.58-0.88,4.72-2.63,6.41
			C777.79,516.95,775.45,517.8,772.54,517.8z"/>
		<rect x="764.79" y="525.25" class="st0" width="15.5" height="53.44"/>
		<path class="st0" d="M788.33,538.36v-11.92h37.05v11.92H788.33z M816.54,579.49c-6.29,0-11.19-1.6-14.7-4.82
			c-3.51-3.21-5.26-8-5.26-14.35v-46.89h15.5v46.69c0,2.25,0.6,3.99,1.79,5.22c1.19,1.23,2.81,1.84,4.87,1.84
			c2.45,0,4.54-0.66,6.26-1.99l4.17,10.93c-1.59,1.13-3.49,1.97-5.71,2.53C821.23,579.2,818.93,579.49,816.54,579.49z"/>
	</g>
	<g>
		<path class="st0" d="M323.29,612.45c-40.01,0-72.45-32.44-72.45-72.45c0-40.01,32.44-72.45,72.45-72.45
			c12.56,0,17.47,4.67,20.81,11.81c7.16,15.27,7.12,41.84,59.31,58.21c1.18,0.37,2.39,0.74,3.62,1.1
			C445.44,549.87,363.3,612.45,323.29,612.45z"/>
		<g>
			<g>
				<path class="st1" d="M368.58,560.9l-26.8,11.84c-4.62,2.04-9.5,2.76-14.21,2.32c-3.05-0.29-6.04-1.06-8.84-2.28
					c-6.36-2.77-11.75-7.84-14.77-14.68l-21.13-50.45l6.95-3.07l0-0.01l10.4-4.59l21.13,50.45l0.34,0.68
					c2.37,4.41,7.8,6.33,12.46,4.27l26.79-11.84l3.27,7.39L368.58,560.9z"/>
			</g>
			<path class="st2" d="M289.77,504.58L289.77,504.58l-6.95,3.07l21.13,50.45c3.02,6.84,8.4,11.91,14.77,14.68L289.77,504.58z"/>
			<path class="st2" d="M364.17,550.95l-26.23,11.34c-4.98,2.15-10.78,0.02-13.18-4.85l-3.12-6.32c2.37,4.41,7.8,6.33,12.46,4.27
				l26.79-11.84L364.17,550.95z"/>
		</g>
		<path class="st2" d="M403.41,537.58c-52.19-16.37-52.15-42.94-59.31-58.21C344.1,479.36,387.06,494.59,403.41,537.58z"/>
	</g>
</g>
</svg>
